<svg xmlns="http://www.w3.org/2000/svg" xmlns:xlink="http://www.w3.org/1999/xlink" version="1.1" x="0px" y="0px" viewBox="-17.5 -17.5 100 125" enable-background="new -17.5 -17.5 100 100" xml:space="preserve"><path d="M65.686,4.306c-0.181-0.084-0.32-0.236-0.388-0.422C61.617-6.188,51.935-12.955,41.203-12.955  c-7.345,0-14.35,3.162-19.22,8.675c-0.203,0.23-0.525,0.313-0.813,0.21c-2.084-0.742-4.225-1.118-6.362-1.118  c-9.757,0-18.049,7.612-18.877,17.329c-0.021,0.243-0.158,0.461-0.369,0.584c-5.325,3.114-8.633,8.861-8.633,14.999  c0,7.171,4.318,13.511,11.001,16.151c0.034,0.013,0.066,0.028,0.098,0.047c1.342,0.77,2.866,1.176,4.408,1.176h55.526  c0.79,0,1.591-0.111,2.381-0.331c10.303-1.825,17.729-10.68,17.729-21.071C78.071,15.423,73.209,7.812,65.686,4.306z"/><path d="M25.286,61.033c-0.042-0.027-0.08-0.055-0.125-0.073c-0.046-0.019-0.092-0.026-0.141-0.036  c-0.047-0.009-0.092-0.019-0.139-0.019c-0.048,0-0.092,0.01-0.139,0.019c-0.048,0.01-0.094,0.018-0.14,0.036  s-0.085,0.047-0.127,0.075c-0.03,0.02-0.064,0.029-0.092,0.054c-0.02,0.018-0.039,0.041-0.059,0.06c0,0-0.001,0-0.002,0.001  c0,0,0,0.001,0,0.001c-2.582,2.379-5.427,9.779-3.851,13.917c0.72,1.889,2.246,2.888,4.411,2.888s3.69-0.998,4.41-2.888  c1.589-4.169-1.313-11.661-3.911-13.979C25.352,61.063,25.316,61.054,25.286,61.033z"/><path d="M38.555,55.653c0-0.001-0.001-0.001-0.002-0.001c-0.02-0.019-0.039-0.042-0.059-0.06c-0.028-0.025-0.063-0.035-0.095-0.056  c-0.041-0.027-0.08-0.055-0.124-0.073c-0.047-0.019-0.093-0.026-0.141-0.036c-0.048-0.009-0.093-0.019-0.142-0.019  c-0.045,0-0.088,0.01-0.133,0.018c-0.05,0.009-0.099,0.018-0.146,0.038c-0.044,0.018-0.082,0.045-0.122,0.071  c-0.031,0.021-0.067,0.03-0.096,0.057c-0.02,0.018-0.039,0.041-0.059,0.06c-0.001,0-0.001,0-0.002,0.001c0,0,0,0.001-0.001,0.001  c-2.581,2.38-5.426,9.782-3.849,13.918c0.72,1.889,2.245,2.887,4.409,2.887c2.165,0,3.69-0.998,4.41-2.888  C43.982,65.436,41.137,58.033,38.555,55.653C38.555,55.654,38.555,55.653,38.555,55.653z"/><path d="M13.951,49.354c-0.042-0.027-0.082-0.057-0.128-0.075c-0.044-0.018-0.088-0.025-0.134-0.034  c-0.05-0.01-0.097-0.02-0.147-0.02c-0.045,0-0.087,0.01-0.131,0.018c-0.05,0.01-0.099,0.018-0.147,0.038  c-0.044,0.018-0.083,0.045-0.123,0.072c-0.031,0.021-0.066,0.03-0.095,0.056c-2.598,2.317-5.5,9.811-3.911,13.979  c0.72,1.89,2.245,2.888,4.41,2.888s3.69-0.998,4.41-2.887c1.589-4.169-1.313-11.661-3.911-13.979  C14.017,49.384,13.982,49.375,13.951,49.354z"/><path d="M52.015,61.149c-0.001-0.001-0.001-0.001-0.002-0.001c-0.02-0.019-0.039-0.042-0.059-0.06  c-0.028-0.025-0.063-0.035-0.095-0.056c-0.041-0.027-0.08-0.055-0.125-0.073c-0.046-0.019-0.092-0.026-0.14-0.035  c-0.048-0.01-0.093-0.02-0.141-0.02c-0.046,0-0.089,0.01-0.134,0.019c-0.051,0.009-0.099,0.018-0.146,0.037  c-0.044,0.018-0.082,0.045-0.122,0.071c-0.031,0.021-0.067,0.031-0.096,0.057c-0.02,0.018-0.039,0.041-0.059,0.06  c-0.001,0-0.001,0-0.002,0.001c0,0,0,0.001-0.001,0.001c-2.581,2.378-5.427,9.779-3.85,13.917c0.72,1.889,2.245,2.888,4.41,2.888  s3.69-0.999,4.41-2.888C57.442,70.93,54.597,63.529,52.015,61.149C52.015,61.15,52.015,61.149,52.015,61.149z"/><text x="-17.5" y="97.5" fill="#000000" font-size="5px" font-weight="bold" font-family="'Helvetica Neue', Helvetica, Arial-Unicode, Arial, Sans-serif">Created by Vectplus</text><text x="-17.5" y="102.5" fill="#000000" font-size="5px" font-weight="bold" font-family="'Helvetica Neue', Helvetica, Arial-Unicode, Arial, Sans-serif">from the Noun Project</text></svg>